<?xml version="1.0" encoding="utf-8"?>
<!-- Generator: Adobe Illustrator 26.3.0, SVG Export Plug-In . SVG Version: 6.00 Build 0)  -->
<svg version="1.1" id="Layer_1" xmlns="http://www.w3.org/2000/svg" xmlns:xlink="http://www.w3.org/1999/xlink" x="0px" y="0px"
	 viewBox="0 0 1280 1024" style="enable-background:new 0 0 1280 1024;" xml:space="preserve">
<style type="text/css">
	.st0{clip-path:url(#SVGID_00000128447545195196004030000016430885644528345760_);fill:url(#SVGID_1_);}
	.st1{fill:#FFFFFF;}
	
		.st2{clip-path:url(#SVGID_00000026131010578760671610000001680151381214125751_);fill:url(#SVGID_00000155836268328247392090000006039399228322663612_);}
	
		.st3{clip-path:url(#SVGID_00000065794704176173349090000006102550286227901630_);fill:url(#SVGID_00000179621620721838580790000015416186360450833539_);}
	
		.st4{clip-path:url(#SVGID_00000138562707978993794920000007937450726441943731_);fill:url(#SVGID_00000098899710531946242340000017724029891588423851_);}
	
		.st5{clip-path:url(#SVGID_00000032621531771871954460000013530984185440436893_);fill:url(#SVGID_00000133488430872983375620000001119679915152908458_);}
	.st6{fill-rule:evenodd;clip-rule:evenodd;fill:#CCCCCC;}
	
		.st7{clip-path:url(#SVGID_00000068676882371326853940000004905960165562462629_);fill:url(#SVGID_00000124870303713123034330000009209457822462290608_);}
	
		.st8{clip-path:url(#SVGID_00000075127867561284745780000005597653651261345704_);fill:url(#SVGID_00000130640245381065064060000007202855213917246906_);}
</style>
<g>
	<defs>
		<path id="SVGID_22_" d="M861.8,766c-14.6,29.7-33.9,55.8-56.6,77.3c-21.2,20-45.2,36-71.2,47.1c2,6.4,3.1,13.3,3.1,20.4
			c0,17.2-6.3,32.7-16.4,44C710.6,966,696.6,973,681.1,973s-29.4-7-39.5-18.2c-10.1-11.3-16.4-26.8-16.4-44c0-1,0-2,0.1-2.9
			c-28.9-2.6-57.2-10.8-83.4-24.2c-28.5-14.5-54.5-35.1-76.5-61.1c-7.1-2.2-14.3-4.9-21.5-8c-15.5,4.2-33,3.5-49.1,3.2l3.5-12.8
			c1-3.7,1.7-7.4,2.3-11.2c0.3-2.4,0.5-4.7,0.7-7c-15.1-0.5-30.6-5.5-39.9-12.3l7.2-8.7c3.3-3.9,6.4-8.1,9.4-12.4
			c0.7-1,1.4-2,2.1-3.1c-13.5-3-25.7-9.4-39.1-17.4l11.7-9.5c5-4.1,9.8-8.7,14.3-13.7h0c3.9-4.3,7.5-9,10.9-13.9
			c-0.3-11.1-0.3-24.3,0.4-38.4c-26.2-10.4-47-38.4-62.4-83.9c-15.6-46.1-25.9-110.9-30.9-194.4v-0.2c-4.7-109.1,3.4-183,21.3-225.2
			c10.6-25,24.9-39.6,42.3-44.4c17.1-4.7,36.4,0.5,57.4,15c40.2,27.7,88.5,90.8,140.7,184.4c45-23.8,97.3-27.2,122.9-24.9
			c10-74.8,52.1-182.9,74.9-214.8C788.8,7,841.2,9,896.3,177.9l0.1,0.4c71.2,248,74.4,380.9,9.6,398.8c5.9,16.5,10.4,31.7,13.1,42.8
			c6.7,2.3,13.1,4.5,18.3,6.5l7.6,2.9l-1.6,8.7c-2,11-6.8,20.1-13.6,27l0,0c12.4,2.8,25.9,1.9,38.6,1.8
			c-9.3,14.5-30.7,39.5-53.9,48.5c2.7,2.1,5.4,4.1,8.3,5.8l17,10.2c-21,9.5-38.1,17.4-55.2,15.1l0.1,0.2
			C876.6,754.1,869,760.6,861.8,766"/>
	</defs>
	<clipPath id="SVGID_00000002342441722766576450000012561879834388409773_">
		<use xlink:href="#SVGID_22_"  style="overflow:visible;"/>
	</clipPath>
	<linearGradient id="SVGID_1_" gradientUnits="userSpaceOnUse" x1="762.4944" y1="1098.1387" x2="503.1817" y2="-53.8917">
		<stop  offset="0" style="stop-color:#FF00FF"/>
		<stop  offset="1" style="stop-color:#FFFF00"/>
	</linearGradient>
	
		<rect x="280.4" y="7" style="clip-path:url(#SVGID_00000002342441722766576450000012561879834388409773_);fill:url(#SVGID_1_);" width="690.4" height="966"/>
</g>
<path class="st1" d="M530.6,318.3c-50.5-90.4-96.5-151-134.1-176.9C379.7,130,365.1,125.7,353,129c-11.8,3.2-22,14.2-30.1,33.3
	c-16.7,39.2-24.1,109.9-19.6,215.3c4.9,81.5,14.8,144.4,29.8,188.6c12.4,36.6,28,59.9,46.8,69.8c3.2-34.1,10.8-69.7,26.8-91.6
	c-12.2,45-14.4,128.1-9,175.1l-15.9,2.2c-0.6,0.7-1.2,1.4-1.8,2.1l0,0c-1.6,1.7-3.2,3.4-4.8,5.1c10.8,10,29.5,20.3,43.3,20.5
	c-6.1,1.4-11.7,2.1-17.1,2.4c-2.9,4.9-5.9,9.5-9,13.8c-0.8,1.2-1.7,2.4-2.6,3.6c10,5.6,34.6,12.4,45,7.6c-4.1,3.8-9.4,6.4-15.2,7.9
	c-0.1,4-0.4,8-0.9,11.8l-0.1,0.7c15.8-1.2,47.8-6,61.6-12.9c-3.5,7.5-7.9,13.3-12.9,17.8c33.4,12.2,61.7,15.2,84.3,13.5
	c-9.9,5.5-19.8,9.1-29.6,11.1c46.5,22.5,96.7,30,145.3,23.3c1.5-0.2,3.1-0.4,4.6-0.7c0.8-0.2,1.6-0.3,2.4-0.4
	c49.5-8.2,97-31.2,137-68.2c-8.1-1.6-16.8-5-26.6-10.6c27.4-3.2,57.1-15,79.5-31.8c-6.2-4-12.6-9.7-19.3-17.4
	c17.2,6.7,32.9,15.8,52.9,5.4c-2.9-2.8-5.7-5.8-8.4-8.9c-6.6-1.7-13.1-5.5-19.2-12.1c18,1.7,44.6-9.1,55-20.7
	c-6.5-1.6-12.8-3.8-18.8-6.6c-5.9,1.4-12.3,1.8-18.9,1.2c5.1-1.1,31.4-23.2,35.5-36.9c-7.9-2.8-39.1-12.1-47.5-38.3
	c6.4,2.7,14.4,5.7,22.9,8.6c-9.7-36.6-26.4-82-50.2-136.4c19.1,13.3,37.1,47.8,50.6,81.6c55.1-11.1,48.5-135.5-19.6-373.1
	C832.6,42.1,791.8,35.4,758.8,81.6c-37.7,52.7-70.6,174-89.7,251.3c-1.6-8.2-2-18-1.4-28.9c-57.1-5-131.5,16.4-177,54.8
	C501.5,342,515.3,328.7,530.6,318.3"/>
<g>
	<defs>
		<path id="SVGID_25_" d="M722,659.5c0.5,4.1,0.7,8.3,0.7,12.5c0,2.5-0.1,5-0.4,7.5c4.5,0.9,9,2.6,13.2,5.2
			c12.8,7.8,19.9,19.6,22.1,32.5c1.5,8.8,0.8,18-1.8,26.6c-2.6,8.5-7.1,16.5-13,22.9c-9.8,10.5-23.7,17-40,15
			c-11-1.3-20.9-6.5-28.6-14.4c-3.9-4-7.1-7.7-9.5-11.8c-6.8,2-13.8,3.1-20.8,3.1c-9.1,0-18.3-1.8-27.1-5.4
			c-13.2-5.4-24.6-14.5-33.3-26.1c-7.4-9.9-12.9-21.7-15.8-34.5c-19.2-8.9-31.1-31.5-24.2-52.3c5,20.6,21.5,35.2,40.6,35.9
			c9.6,0.4,18.7-2.8,26.2-8.5c7.5-5.7,13.4-14.1,16.5-24.2l5.6-18.1l10.4,15.3c6.1,9,14.5,15.3,23.8,18.4c9.3,3.1,19.4,2.9,28.9-0.9
			c19.1-7.7,31.5-28.4,30.4-51C733.4,625.1,730.9,645.1,722,659.5"/>
	</defs>
	<clipPath id="SVGID_00000058557289058775529810000004627528714152489096_">
		<use xlink:href="#SVGID_25_"  style="overflow:visible;"/>
	</clipPath>
	
		<linearGradient id="SVGID_00000133487609700719367280000004593891785131958662_" gradientUnits="userSpaceOnUse" x1="739.4816" y1="1102.1052" x2="482.4954" y2="-39.5888">
		<stop  offset="0" style="stop-color:#FF00FF"/>
		<stop  offset="1" style="stop-color:#FFFF00"/>
	</linearGradient>
	
		<rect x="536.7" y="607.1" style="clip-path:url(#SVGID_00000058557289058775529810000004627528714152489096_);fill:url(#SVGID_00000133487609700719367280000004593891785131958662_);" width="222.5" height="176.6"/>
</g>
<path class="st1" d="M636.9,872.8c-38.3,0.6-76.8-7.1-113.4-23.3c8.4,5.8,17.1,11.1,26,15.6c25,12.8,52,20.5,79.6,22.6
	C631.1,882.4,633.7,877.4,636.9,872.8"/>
<path class="st1" d="M676.2,869.4l-1,0.2c-8,1.4-15.2,5.6-20.7,11.7c-6.8,7.6-11,18-11,29.6s4.2,22,11,29.6
	c6.8,7.6,16.2,12.3,26.6,12.3c10.4,0,19.8-4.7,26.6-12.3c6.8-7.6,11-18,11-29.6s-4.2-22-11-29.6c-6.8-7.6-16.2-12.2-26.6-12.2
	C679.5,869,677.8,869.1,676.2,869.4"/>
<path class="st1" d="M725.1,872.4c25-10.4,48.1-25.5,68.3-44.6c8.5-8.1,16.5-16.8,23.9-26.2c-31.2,27.5-66.4,47.2-103.4,58.8
	c2.4,1.9,4.7,4.1,6.8,6.5C722.3,868.6,723.7,870.4,725.1,872.4"/>
<g>
	<defs>
		<path id="SVGID_28_" d="M453.5,387.9l0,11.5c-15.5-2.1-26.4-3.7-41.6,4c1.9,15.3,13.2,33.3,24.6,42.4c-9.9-0.1-27.8,0.5-39.5,10.9
			c-0.7,11.1,3.9,24.8,9.2,32.8c-16.3-2.6-28.5-33.6-30.5-46.2c11.3-4.6,20.7-8.2,32.9-9.5c-10.1-13.1-14.3-23.6-19.6-39.2
			c10.3-7.2,18.2-12.3,30.5-15.4c5.1-1.3,10.3-2,15.6-2.1c-1.4-32-8.7-63.1-21.3-91.3c-13.9-31.3-34.3-59.1-59.9-80.8
			C434.6,245,453.5,337.5,453.5,387.9"/>
	</defs>
	<clipPath id="SVGID_00000054264799179983004290000003120203704359906988_">
		<use xlink:href="#SVGID_28_"  style="overflow:visible;"/>
	</clipPath>
	
		<linearGradient id="SVGID_00000138534663348631787790000011169998656647041939_" gradientUnits="userSpaceOnUse" x1="583.7204" y1="1146.989" x2="322.5258" y2="-13.4017">
		<stop  offset="0" style="stop-color:#FF00FF"/>
		<stop  offset="1" style="stop-color:#FFFF00"/>
	</linearGradient>
	
		<rect x="353.9" y="205.1" style="clip-path:url(#SVGID_00000054264799179983004290000003120203704359906988_);fill:url(#SVGID_00000138534663348631787790000011169998656647041939_);" width="99.7" height="284.4"/>
</g>
<g>
	<defs>
		<path id="SVGID_31_" d="M819.2,131.1c-19.6,28.4-32.4,68.2-38.6,102.5c-5.6,30.8-5.5,62.9,0.7,94.3c17.9-5,31.1-2.3,48.5,3.6
			c-1.5,16.6-3.3,28.3-9.8,43.5c8.6-1.6,17.5-2,26.4-1.1l7.7,0.8c1.3,17.2-5.1,44.1-21.4,53.9c3.3-8.5,5.8-24.4,3.9-34.9
			c-16.1-4.1-28.9-0.4-40.7,0.8c9.6-11,15.5-34.3,13.9-48.1c-10.6-1.9-21.5-0.6-31.6,3.8l-9.6,4.3l-2.7-11.1
			c-9-37.7-9.9-76.6-3.2-113.9C767.7,201.7,792,132.3,819.2,131.1"/>
	</defs>
	<clipPath id="SVGID_00000067198377456170735090000004788193265293133483_">
		<use xlink:href="#SVGID_31_"  style="overflow:visible;"/>
	</clipPath>
	
		<linearGradient id="SVGID_00000007427654266102251850000001497601252030164876_" gradientUnits="userSpaceOnUse" x1="978.6515" y1="1048.5389" x2="717.3647" y2="-112.2613">
		<stop  offset="0" style="stop-color:#FF00FF"/>
		<stop  offset="1" style="stop-color:#FFFF00"/>
	</linearGradient>
	
		<rect x="755.9" y="131.1" style="clip-path:url(#SVGID_00000067198377456170735090000004788193265293133483_);fill:url(#SVGID_00000007427654266102251850000001497601252030164876_);" width="99.4" height="297.5"/>
</g>
<g>
	<defs>
		<path id="SVGID_34_" d="M622,516.3c35.5-4.9,66.6,11.3,69.3,36.1c2.8,24.8-23.8,48.9-59.3,53.8c-35.5,4.9-66.6-11.3-69.3-36.1
			C559.9,545.3,586.5,521.2,622,516.3"/>
	</defs>
	<clipPath id="SVGID_00000025415295966652868460000004223637134789314990_">
		<use xlink:href="#SVGID_34_"  style="overflow:visible;"/>
	</clipPath>
	
		<linearGradient id="SVGID_00000039833795388044948350000018028060071110079110_" gradientUnits="userSpaceOnUse" x1="747.5505" y1="1096.75" x2="490.8872" y2="-43.51">
		<stop  offset="0" style="stop-color:#FF00FF"/>
		<stop  offset="1" style="stop-color:#FFFF00"/>
	</linearGradient>
	
		<rect x="559.9" y="511.4" style="clip-path:url(#SVGID_00000025415295966652868460000004223637134789314990_);fill:url(#SVGID_00000039833795388044948350000018028060071110079110_);" width="134.2" height="99.7"/>
</g>
<path class="st1" d="M649.2,743.1c3.6-0.3,7.1-1,10.6-2l0,0l13-4.7c1.5,8.7,5,13.9,10.6,19.7c5.6,5.7,12.8,9.5,20.7,10.5
	c11.9,1.4,22-3.2,29-10.8c4.4-4.7,7.7-10.5,9.6-16.8c1.9-6.1,2.4-12.7,1.3-18.8c-1.5-8.6-6.3-16.7-15.2-22c-7.1-4.3-15-5.1-22.3-3
	c-4.4,1.3-8.6,3.7-12.1,7.1c11.3,5.6,18.9,16.8,17.4,28.2c-6.7-14.8-25.4-20-39.9-15.7c-7.2,2.2-13.2,7-17.4,13.3
	C651.9,732.4,650,737.6,649.2,743.1"/>
<path class="st1" d="M679.1,698.4c6.1-9.1,14.7-15.3,24.1-18c1.8-0.5,3.5-0.9,5.3-1.2c0.2-2,0.3-3.9,0.4-5.9
	c-2.2,1.5-4.6,2.8-7.1,3.8c-13.3,5.4-27.5,5.6-40.4,1.3c-8.5-2.8-16.5-7.6-23.4-14.1c-4.5,8-10.4,14.7-17.3,20
	c-10.7,8.2-23.6,12.6-37.2,12.1l-0.4,0c2.6,7.7,6.3,14.8,10.9,20.9c7.2,9.6,16.6,17.1,27.5,21.6c4.5,1.9,9.2,3.1,13.9,3.8
	c0.9-8.7,3.8-16.8,8.3-23.6c5.9-9.1,14.6-16.1,24.9-19.2C672.1,698.8,675.7,698.4,679.1,698.4"/>
<path class="st6" d="M645.6,924.6c-0.2-20.5,13.1-38.2,31.3-41.6c18.2-3.4,36,8.4,41.9,27.9c0-16.6-8.8-31.7-22.6-38.4
	c-13.7-6.7-29.7-3.7-40.6,7.6C644.6,891.4,640.7,908.9,645.6,924.6"/>
<g>
	<defs>
		<path id="SVGID_37_" d="M714.9,426.2c17.8,0,32.2,16,32.2,35.8c0,19.8-14.4,35.8-32.2,35.8c-17.8,0-32.2-16-32.2-35.8
			C682.7,442.2,697.1,426.2,714.9,426.2"/>
	</defs>
	<clipPath id="SVGID_00000088816933319827004600000011642667069579785349_">
		<use xlink:href="#SVGID_37_"  style="overflow:visible;"/>
	</clipPath>
	
		<linearGradient id="SVGID_00000105406936935515911220000006374518151202366878_" gradientUnits="userSpaceOnUse" x1="852.5306" y1="1073.4342" x2="594.0654" y2="-74.8304">
		<stop  offset="0" style="stop-color:#FF00FF"/>
		<stop  offset="1" style="stop-color:#FFFF00"/>
	</linearGradient>
	
		<rect x="682.7" y="426.2" style="clip-path:url(#SVGID_00000088816933319827004600000011642667069579785349_);fill:url(#SVGID_00000105406936935515911220000006374518151202366878_);" width="64.4" height="71.6"/>
</g>
<g>
	<defs>
		<path id="SVGID_40_" d="M519.8,489.4c-23.4,14-36.4,42.9-32.4,72.1c7.1-35.9,32.8-63.7,65.3-70.5c-21.9-18-50.4-22.7-76-12.4
			C491.7,477.2,506.8,481,519.8,489.4"/>
	</defs>
	<clipPath id="SVGID_00000039100965926608136210000010329807578290549647_">
		<use xlink:href="#SVGID_40_"  style="overflow:visible;"/>
	</clipPath>
	
		<linearGradient id="SVGID_00000067201807729873085270000001059860717547394447_" gradientUnits="userSpaceOnUse" x1="651.9391" y1="1124.605" x2="393.0969" y2="-25.3352">
		<stop  offset="0" style="stop-color:#FF00FF"/>
		<stop  offset="1" style="stop-color:#FFFF00"/>
	</linearGradient>
	
		<rect x="476.7" y="468.3" style="clip-path:url(#SVGID_00000039100965926608136210000010329807578290549647_);fill:url(#SVGID_00000067201807729873085270000001059860717547394447_);" width="76" height="93.2"/>
</g>
<path class="st6" d="M353,129c-11.8,3.2-22,14.2-30.1,33.3c-12.7,29.8-20,77.9-20.8,145.6c12.3-247.7,143.2-81,206.7,28.4
	c6.8-6.8,14.1-12.7,21.8-18c-50.5-90.4-96.5-151-134.1-176.9C379.7,130,365.1,125.7,353,129"/>
<path class="st6" d="M758.8,81.6c-37.7,52.7-70.6,174-89.7,251.3c51.1-136.4,130.1-372,219.9-113.2c-3.1-11.3-6.4-23-9.8-34.9
	C832.6,42.1,791.8,35.4,758.8,81.6"/>
<path class="st6" d="M873.9,344c2.9-79.2-69.2-90.4-54.8-212.9c-19.6,28.4-32.4,68.2-38.6,102.5c-5.6,30.8-5.5,62.9,0.7,94.3
	c17.9-5,31.1-2.3,48.5,3.6c-1.5,16.6-3.3,28.3-9.8,43.5c8.6-1.6,17.5-2,26.4-1.1l7.7,0.8c1,13.9-2.9,34.2-13.2,46.7
	C860.8,401.7,872.8,373.8,873.9,344"/>
<path class="st6" d="M353.9,205.1c51.1,91.7-23.9,128.7-4.3,210.4c7.2,30.2,25.1,55.8,49.6,71.1c-12.7-8.5-21.8-32.5-23.5-43.3
	c11.3-4.6,20.7-8.2,32.9-9.5c-10.1-13.1-14.3-23.6-19.6-39.2c10.3-7.2,18.2-12.3,30.5-15.4c5.1-1.3,10.3-2,15.6-2.1
	c-1.4-32-8.7-63.1-21.3-91.3C399.8,254.7,379.5,226.9,353.9,205.1"/>
<path class="st6" d="M406.7,544.6c-46.8,31.6-80.6-15.4-101.6-140.8c5.4,69,14.7,123.2,28,162.6c12.4,36.6,28,59.9,46.8,69.8
	C383.1,602,390.7,566.4,406.7,544.6"/>
<path class="st6" d="M918,338.2c9.1,121.1-14.2,167.2-69.8,138.2c19.1,13.3,37.1,47.8,50.6,81.6C940.5,549.5,946.9,476.2,918,338.2"
	/>
<path class="st6" d="M431.2,725.9c-27.7-55.1-36.4-119.6-24.5-181.3c-12.2,45-14.4,128.1-9,175.1l-15.9,2.2
	c-0.6,0.7-1.2,1.4-1.8,2.1l0,0c-1.6,1.7-3.2,3.4-4.8,5.1c10.8,10,29.5,20.3,43.3,20.5c-6.1,1.4-11.7,2.1-17.1,2.4
	c-2.9,4.9-5.9,9.5-9,13.8c-0.8,1.2-1.7,2.4-2.6,3.6c10,5.6,34.6,12.4,45,7.6c-4.1,3.8-9.4,6.4-15.2,7.9c-0.1,4-0.4,8-0.9,11.8
	l-0.1,0.7c15.8-1.2,47.8-6,61.6-12.9c-3.5,7.5-7.9,13.3-12.9,17.8c33.4,12.2,61.7,15.2,84.3,13.5c-23.1-1.8-45.8-8-67.1-18.1
	c5.9-9.5,9.6-20.5,10.5-32c-14.9,9.2-31.5,14.8-48.5,16.2c6.3-6.5,11.5-14.3,15.2-22.9c-14.8,6.3-30.9,8-46.6,4.8
	c11.5-1.1,22.2-6.7,30.3-16c-15-0.8-29.4-6.9-41-17.4C413.5,730,422.5,728.5,431.2,725.9"/>
<path class="st6" d="M864.1,738.5c-6.2-4-12.6-9.7-19.3-17.4c17.2,6.7,32.9,15.8,52.9,5.4c-2.9-2.8-5.7-5.8-8.4-8.9
	c-6.6-1.7-13.1-5.5-19.2-12.1c18,1.7,44.6-9.1,55-20.7c-6.5-1.6-12.8-3.8-18.8-6.6c-5.9,1.4-12.3,1.8-18.9,1.2
	c5.1-1.1,31.4-23.2,35.5-36.9c-7.9-2.8-39.1-12.1-47.5-38.3c6.4,2.7,14.4,5.7,22.9,8.6c-9.7-36.6-26.4-82-50.2-136.4
	c11.9,35.8,20.5,72.9,25.8,110.7c-8.9-1.7-17.5-4.6-25.7-8.6c3.3,32.7,23.7,60.2,51.9,70.1c-9.4,15.2-24.3,25.1-40.8,27.2
	c6.8,5.4,14.2,9.6,22.1,12.6c-14.4,2.4-29.2-0.7-41.8-8.8c6,15.1,14.9,28.6,26.2,39.4c-13.5-4.7-26.4-11.7-38-20.8
	c0.1,14.9,5.6,29.1,15.2,39.4c-17.6,14.6-37.4,25.7-58.4,32.8C812,767.2,841.7,755.3,864.1,738.5"/>
<path class="st6" d="M729.6,709.1c17,24.6-6.7,54.9-32.6,49.1c-10.8-2.4-19.8-10.6-24.1-21.8c1.5,8.7,5,13.9,10.6,19.7
	c5.6,5.7,12.8,9.5,20.7,10.5c11.9,1.4,22-3.2,29-10.8c4.4-4.7,7.7-10.5,9.6-16.8c1.9-6.1,2.4-12.7,1.3-18.8
	c-1.5-8.6-6.3-16.7-15.2-22c-7.1-4.3-15-5.1-22.3-3c-4.4,1.3-8.6,3.7-12.1,7.1C706.1,694.2,721.3,697.2,729.6,709.1"/>
</svg>
